<svg width="66" height="44" viewBox="0 0 66 44" fill="none" xmlns="http://www.w3.org/2000/svg">
<path d="M41.3 21V19C41.3 17.9391 40.8786 16.9217 40.1285 16.1716C39.3783 15.4214 38.3609 15 37.3 15H29.3C28.2392 15 27.2218 15.4214 26.4716 16.1716C25.7215 16.9217 25.3 17.9391 25.3 19V21M37.3 7C37.3 9.20914 35.5092 11 33.3 11C31.0909 11 29.3 9.20914 29.3 7C29.3 4.79086 31.0909 3 33.3 3C35.5092 3 37.3 4.79086 37.3 7Z" stroke="#757575" stroke-width="2" stroke-linecap="round" stroke-linejoin="round"/>
<path d="M11.9211 40H10.8132L14.0177 31.2727H15.1086L18.3132 40H17.2052L14.5973 32.6534H14.5291L11.9211 40ZM12.3302 36.5909H16.7961V37.5284H12.3302V36.5909ZM21.9553 40.1364C21.3417 40.1364 20.8133 39.9915 20.3701 39.7017C19.9269 39.4119 19.586 39.0128 19.3473 38.5043C19.1087 37.9957 18.9894 37.4148 18.9894 36.7614C18.9894 36.0966 19.1115 35.5099 19.3559 35.0014C19.603 34.4901 19.9468 34.0909 20.3871 33.804C20.8303 33.5142 21.3473 33.3693 21.9383 33.3693C22.3985 33.3693 22.8133 33.4545 23.1826 33.625C23.5519 33.7955 23.8544 34.0341 24.0902 34.3409C24.326 34.6477 24.4723 35.0057 24.5292 35.4148H23.5235C23.4468 35.1165 23.2763 34.8523 23.0121 34.6222C22.7508 34.3892 22.3985 34.2727 21.9553 34.2727C21.5633 34.2727 21.2195 34.375 20.924 34.5795C20.6314 34.7812 20.4027 35.0668 20.238 35.4361C20.076 35.8026 19.9951 36.233 19.9951 36.7273C19.9951 37.233 20.0746 37.6733 20.2337 38.0483C20.3956 38.4233 20.6229 38.7145 20.9155 38.9219C21.211 39.1293 21.5576 39.233 21.9553 39.233C22.2167 39.233 22.4539 39.1875 22.6669 39.0966C22.88 39.0057 23.0604 38.875 23.2081 38.7045C23.3559 38.5341 23.461 38.3295 23.5235 38.0909H24.5292C24.4723 38.4773 24.3317 38.8253 24.1073 39.1349C23.8857 39.4418 23.5917 39.6861 23.2252 39.8679C22.8615 40.0469 22.4383 40.1364 21.9553 40.1364ZM28.4184 40.1364C27.8048 40.1364 27.2764 39.9915 26.8332 39.7017C26.39 39.4119 26.0491 39.0128 25.8105 38.5043C25.5718 37.9957 25.4525 37.4148 25.4525 36.7614C25.4525 36.0966 25.5747 35.5099 25.819 35.0014C26.0661 34.4901 26.4099 34.0909 26.8502 33.804C27.2934 33.5142 27.8105 33.3693 28.4014 33.3693C28.8616 33.3693 29.2764 33.4545 29.6457 33.625C30.015 33.7955 30.3176 34.0341 30.5534 34.3409C30.7892 34.6477 30.9355 35.0057 30.9923 35.4148H29.9866C29.9099 35.1165 29.7394 34.8523 29.4752 34.6222C29.2139 34.3892 28.8616 34.2727 28.4184 34.2727C28.0264 34.2727 27.6826 34.375 27.3872 34.5795C27.0946 34.7812 26.8659 35.0668 26.7011 35.4361C26.5392 35.8026 26.4582 36.233 26.4582 36.7273C26.4582 37.233 26.5377 37.6733 26.6968 38.0483C26.8588 38.4233 27.086 38.7145 27.3786 38.9219C27.6741 39.1293 28.0207 39.233 28.4184 39.233C28.6798 39.233 28.917 39.1875 29.1301 39.0966C29.3431 39.0057 29.5235 38.875 29.6713 38.7045C29.819 38.5341 29.9241 38.3295 29.9866 38.0909H30.9923C30.9355 38.4773 30.7948 38.8253 30.5704 39.1349C30.3488 39.4418 30.0548 39.6861 29.6883 39.8679C29.3247 40.0469 28.9014 40.1364 28.4184 40.1364ZM34.8815 40.1364C34.2906 40.1364 33.7722 39.9957 33.3261 39.7145C32.883 39.4332 32.5364 39.0398 32.2864 38.5341C32.0392 38.0284 31.9156 37.4375 31.9156 36.7614C31.9156 36.0795 32.0392 35.4844 32.2864 34.9759C32.5364 34.4673 32.883 34.0724 33.3261 33.7912C33.7722 33.5099 34.2906 33.3693 34.8815 33.3693C35.4725 33.3693 35.9895 33.5099 36.4327 33.7912C36.8787 34.0724 37.2253 34.4673 37.4725 34.9759C37.7225 35.4844 37.8475 36.0795 37.8475 36.7614C37.8475 37.4375 37.7225 38.0284 37.4725 38.5341C37.2253 39.0398 36.8787 39.4332 36.4327 39.7145C35.9895 39.9957 35.4725 40.1364 34.8815 40.1364ZM34.8815 39.233C35.3304 39.233 35.6997 39.1179 35.9895 38.8878C36.2793 38.6577 36.4938 38.3551 36.633 37.9801C36.7722 37.6051 36.8418 37.1989 36.8418 36.7614C36.8418 36.3239 36.7722 35.9162 36.633 35.5384C36.4938 35.1605 36.2793 34.8551 35.9895 34.6222C35.6997 34.3892 35.3304 34.2727 34.8815 34.2727C34.4327 34.2727 34.0634 34.3892 33.7736 34.6222C33.4838 34.8551 33.2693 35.1605 33.1301 35.5384C32.9909 35.9162 32.9213 36.3239 32.9213 36.7614C32.9213 37.1989 32.9909 37.6051 33.1301 37.9801C33.2693 38.3551 33.4838 38.6577 33.7736 38.8878C34.0634 39.1179 34.4327 39.233 34.8815 39.233ZM43.2676 37.3239V33.4545H44.2733V40H43.2676V38.892H43.1994C43.046 39.2244 42.8074 39.5071 42.4835 39.7401C42.1597 39.9702 41.7506 40.0852 41.2562 40.0852C40.8472 40.0852 40.4835 39.9957 40.1653 39.8168C39.8472 39.6349 39.5972 39.3622 39.4153 38.9986C39.2335 38.6321 39.1426 38.1705 39.1426 37.6136V33.4545H40.1483V37.5455C40.1483 38.0227 40.2818 38.4034 40.5489 38.6875C40.8187 38.9716 41.1625 39.1136 41.5801 39.1136C41.8301 39.1136 42.0844 39.0497 42.3429 38.9219C42.6043 38.794 42.823 38.598 42.9991 38.3338C43.1781 38.0696 43.2676 37.733 43.2676 37.3239ZM46.8809 36.0625V40H45.8753V33.4545H46.8469V34.4773H46.9321C47.0855 34.1449 47.3184 33.8778 47.6309 33.6761C47.9434 33.4716 48.3469 33.3693 48.8412 33.3693C49.2844 33.3693 49.6721 33.4602 50.0045 33.642C50.3369 33.821 50.5954 34.0938 50.7801 34.4602C50.9648 34.8239 51.0571 35.2841 51.0571 35.8409V40H50.0514V35.9091C50.0514 35.3949 49.9179 34.9943 49.6508 34.7074C49.3838 34.4176 49.0173 34.2727 48.5514 34.2727C48.2304 34.2727 47.9434 34.3423 47.6906 34.4815C47.4406 34.6207 47.2432 34.8239 47.0983 35.0909C46.9534 35.358 46.8809 35.6818 46.8809 36.0625ZM55.5014 33.4545V34.3068H52.1093V33.4545H55.5014ZM53.098 31.8864H54.1037V38.125C54.1037 38.4091 54.1449 38.6222 54.2272 38.7642C54.3125 38.9034 54.4204 38.9972 54.5511 39.0455C54.6846 39.0909 54.8253 39.1136 54.973 39.1136C55.0838 39.1136 55.1747 39.108 55.2457 39.0966C55.3167 39.0824 55.3735 39.071 55.4162 39.0625L55.6207 39.9659C55.5525 39.9915 55.4574 40.017 55.3352 40.0426C55.213 40.071 55.0582 40.0852 54.8707 40.0852C54.5866 40.0852 54.3082 40.0241 54.0355 39.902C53.7656 39.7798 53.5412 39.5938 53.3622 39.3438C53.186 39.0938 53.098 38.7784 53.098 38.3977V31.8864Z" fill="#757575"/>
</svg>
