<svg width="66" height="44" viewBox="0 0 66 44" fill="none" xmlns="http://www.w3.org/2000/svg">
<path d="M37.0999 4H39.0999C39.6303 4 40.139 4.21071 40.5141 4.58579C40.8891 4.96086 41.0999 5.46957 41.0999 6V20C41.0999 20.5304 40.8891 21.0391 40.5141 21.4142C40.139 21.7893 39.6303 22 39.0999 22H27.0999C26.5694 22 26.0607 21.7893 25.6856 21.4142C25.3106 21.0391 25.0999 20.5304 25.0999 20V6C25.0999 5.46957 25.3106 4.96086 25.6856 4.58579C26.0607 4.21071 26.5694 4 27.0999 4H29.0999M30.0999 2H36.0999C36.6521 2 37.0999 2.44772 37.0999 3V5C37.0999 5.55228 36.6521 6 36.0999 6H30.0999C29.5476 6 29.0999 5.55228 29.0999 5V3C29.0999 2.44772 29.5476 2 30.0999 2Z" stroke="#757575" stroke-width="2" stroke-linecap="round" stroke-linejoin="round"/>
<path d="M2.95791 40H1.84995L5.0545 31.2727H6.14541L9.34995 40H8.242L5.63404 32.6534H5.56586L2.95791 40ZM3.367 36.5909H7.83291V37.5284H3.367V36.5909ZM12.7694 33.4545V34.3068H9.37735V33.4545H12.7694ZM10.366 31.8864H11.3717V38.125C11.3717 38.4091 11.4129 38.6222 11.4953 38.7642C11.5805 38.9034 11.6884 38.9972 11.8191 39.0455C11.9526 39.0909 12.0933 39.1136 12.241 39.1136C12.3518 39.1136 12.4427 39.108 12.5137 39.0966C12.5847 39.0824 12.6416 39.071 12.6842 39.0625L12.8887 39.9659C12.8205 39.9915 12.7254 40.017 12.6032 40.0426C12.481 40.071 12.3262 40.0852 12.1387 40.0852C11.8546 40.0852 11.5762 40.0241 11.3035 39.902C11.0336 39.7798 10.8092 39.5938 10.6302 39.3438C10.4541 39.0938 10.366 38.7784 10.366 38.3977V31.8864ZM16.8888 33.4545V34.3068H13.4967V33.4545H16.8888ZM14.4854 31.8864H15.491V38.125C15.491 38.4091 15.5322 38.6222 15.6146 38.7642C15.6999 38.9034 15.8078 38.9972 15.9385 39.0455C16.072 39.0909 16.2126 39.1136 16.3604 39.1136C16.4712 39.1136 16.5621 39.108 16.6331 39.0966C16.7041 39.0824 16.7609 39.071 16.8035 39.0625L17.0081 39.9659C16.9399 39.9915 16.8447 40.017 16.7226 40.0426C16.6004 40.071 16.4456 40.0852 16.2581 40.0852C15.974 40.0852 15.6956 40.0241 15.4229 39.902C15.153 39.7798 14.9285 39.5938 14.7496 39.3438C14.5734 39.0938 14.4854 38.7784 14.4854 38.3977V31.8864ZM20.8356 40.1364C20.2049 40.1364 19.6608 39.9972 19.2035 39.7188C18.7489 39.4375 18.3981 39.0455 18.1509 38.5426C17.9066 38.0369 17.7844 37.4489 17.7844 36.7784C17.7844 36.108 17.9066 35.517 18.1509 35.0057C18.3981 34.4915 18.7418 34.0909 19.1822 33.804C19.6253 33.5142 20.1424 33.3693 20.7333 33.3693C21.0742 33.3693 21.4108 33.4261 21.7432 33.5398C22.0756 33.6534 22.3782 33.8381 22.6509 34.0938C22.9236 34.3466 23.141 34.6818 23.3029 35.0994C23.4648 35.517 23.5458 36.0312 23.5458 36.642V37.0682H18.5003V36.1989H22.5231C22.5231 35.8295 22.4492 35.5 22.3015 35.2102C22.1566 34.9205 21.9492 34.6918 21.6793 34.5241C21.4123 34.3565 21.0969 34.2727 20.7333 34.2727C20.3327 34.2727 19.9861 34.3722 19.6935 34.571C19.4037 34.767 19.1807 35.0227 19.0245 35.3381C18.8682 35.6534 18.7901 35.9915 18.7901 36.3523V36.9318C18.7901 37.4261 18.8753 37.8452 19.0458 38.1889C19.2191 38.5298 19.4591 38.7898 19.766 38.9688C20.0728 39.1449 20.4293 39.233 20.8356 39.233C21.0998 39.233 21.3384 39.196 21.5515 39.1222C21.7674 39.0455 21.9535 38.9318 22.1097 38.7812C22.266 38.6278 22.3867 38.4375 22.4719 38.2102L23.4435 38.483C23.3412 38.8125 23.1694 39.1023 22.9279 39.3523C22.6864 39.5994 22.3881 39.7926 22.033 39.9318C21.6779 40.0682 21.2787 40.1364 20.8356 40.1364ZM25.8413 36.0625V40H24.8356V33.4545H25.8072V34.4773H25.8924C26.0458 34.1449 26.2788 33.8778 26.5913 33.6761C26.9038 33.4716 27.3072 33.3693 27.8015 33.3693C28.2447 33.3693 28.6325 33.4602 28.9649 33.642C29.2973 33.821 29.5558 34.0938 29.7405 34.4602C29.9251 34.8239 30.0174 35.2841 30.0174 35.8409V40H29.0118V35.9091C29.0118 35.3949 28.8782 34.9943 28.6112 34.7074C28.3441 34.4176 27.9777 34.2727 27.5118 34.2727C27.1907 34.2727 26.9038 34.3423 26.651 34.4815C26.401 34.6207 26.2035 34.8239 26.0586 35.0909C25.9137 35.358 25.8413 35.6818 25.8413 36.0625ZM34.0867 40.1364C33.5413 40.1364 33.0598 39.9986 32.6421 39.723C32.2245 39.4446 31.8978 39.0526 31.662 38.5469C31.4262 38.0384 31.3083 37.4375 31.3083 36.7443C31.3083 36.0568 31.4262 35.4602 31.662 34.9545C31.8978 34.4489 32.2259 34.0582 32.6464 33.7827C33.0669 33.5071 33.5527 33.3693 34.1038 33.3693C34.5299 33.3693 34.8666 33.4403 35.1137 33.5824C35.3637 33.7216 35.5541 33.8807 35.6848 34.0597C35.8183 34.2358 35.922 34.3807 35.9958 34.4943H36.0811V31.2727H37.0867V40H36.1152V38.9943H35.9958C35.922 39.1136 35.8169 39.2642 35.6805 39.446C35.5441 39.625 35.3495 39.7855 35.0967 39.9276C34.8438 40.0668 34.5072 40.1364 34.0867 40.1364ZM34.2231 39.233C34.6265 39.233 34.9674 39.1278 35.2458 38.9176C35.5242 38.7045 35.7359 38.4105 35.8808 38.0355C36.0257 37.6577 36.0981 37.2216 36.0981 36.7273C36.0981 36.2386 36.0271 35.8111 35.885 35.4446C35.743 35.0753 35.5328 34.7884 35.2544 34.5838C34.9759 34.3764 34.6322 34.2727 34.2231 34.2727C33.797 34.2727 33.4419 34.3821 33.1578 34.6009C32.8765 34.8168 32.6649 35.1108 32.5228 35.483C32.3836 35.8523 32.314 36.267 32.314 36.7273C32.314 37.1932 32.385 37.6165 32.5271 37.9972C32.672 38.375 32.885 38.6761 33.1663 38.9006C33.4504 39.1222 33.8027 39.233 34.2231 39.233ZM40.7544 40.1534C40.3396 40.1534 39.9632 40.0753 39.6252 39.919C39.2871 39.7599 39.0186 39.5312 38.8198 39.233C38.6209 38.9318 38.5215 38.5682 38.5215 38.142C38.5215 37.767 38.5953 37.4631 38.743 37.2301C38.8908 36.9943 39.0882 36.8097 39.3354 36.6761C39.5825 36.5426 39.8553 36.4432 40.1536 36.3778C40.4547 36.3097 40.7573 36.2557 41.0612 36.2159C41.459 36.1648 41.7814 36.1264 42.0286 36.1009C42.2786 36.0724 42.4604 36.0256 42.574 35.9602C42.6905 35.8949 42.7487 35.7812 42.7487 35.6193V35.5852C42.7487 35.1648 42.6337 34.8381 42.4036 34.6051C42.1763 34.3722 41.8311 34.2557 41.368 34.2557C40.8879 34.2557 40.5115 34.3608 40.2388 34.571C39.9661 34.7812 39.7743 35.0057 39.6635 35.2443L38.709 34.9034C38.8794 34.5057 39.1067 34.196 39.3908 33.9744C39.6777 33.75 39.9902 33.5937 40.3283 33.5057C40.6692 33.4148 41.0044 33.3693 41.334 33.3693C41.5442 33.3693 41.7857 33.3949 42.0584 33.446C42.334 33.4943 42.5996 33.5952 42.8553 33.7486C43.1138 33.902 43.3283 34.1335 43.4987 34.4432C43.6692 34.7528 43.7544 35.1676 43.7544 35.6875V40H42.7487V39.1136H42.6976C42.6294 39.2557 42.5158 39.4077 42.3567 39.5696C42.1976 39.7315 41.9859 39.8693 41.7217 39.983C41.4575 40.0966 41.1351 40.1534 40.7544 40.1534ZM40.9078 39.25C41.3055 39.25 41.6408 39.1719 41.9135 39.0156C42.1891 38.8594 42.3965 38.6577 42.5357 38.4105C42.6777 38.1634 42.7487 37.9034 42.7487 37.6307V36.7102C42.7061 36.7614 42.6124 36.8082 42.4675 36.8509C42.3254 36.8906 42.1607 36.9261 41.9732 36.9574C41.7885 36.9858 41.6081 37.0114 41.432 37.0341C41.2587 37.054 41.118 37.071 41.0101 37.0852C40.7487 37.1193 40.5044 37.1747 40.2771 37.2514C40.0527 37.3253 39.8709 37.4375 39.7317 37.5881C39.5953 37.7358 39.5271 37.9375 39.5271 38.1932C39.5271 38.5426 39.6564 38.8068 39.9149 38.9858C40.1763 39.1619 40.5073 39.25 40.9078 39.25ZM46.3557 36.0625V40H45.35V33.4545H46.3216V34.4773H46.4068C46.5602 34.1449 46.7932 33.8778 47.1057 33.6761C47.4182 33.4716 47.8216 33.3693 48.3159 33.3693C48.7591 33.3693 49.1469 33.4602 49.4793 33.642C49.8116 33.821 50.0702 34.0938 50.2548 34.4602C50.4395 34.8239 50.5318 35.2841 50.5318 35.8409V40H49.5261V35.9091C49.5261 35.3949 49.3926 34.9943 49.1256 34.7074C48.8585 34.4176 48.492 34.2727 48.0261 34.2727C47.7051 34.2727 47.4182 34.3423 47.1653 34.4815C46.9153 34.6207 46.7179 34.8239 46.573 35.0909C46.4281 35.358 46.3557 35.6818 46.3557 36.0625ZM54.7886 40.1364C54.175 40.1364 53.6466 39.9915 53.2034 39.7017C52.7602 39.4119 52.4193 39.0128 52.1807 38.5043C51.942 37.9957 51.8227 37.4148 51.8227 36.7614C51.8227 36.0966 51.9449 35.5099 52.1892 35.0014C52.4363 34.4901 52.7801 34.0909 53.2204 33.804C53.6636 33.5142 54.1807 33.3693 54.7716 33.3693C55.2318 33.3693 55.6466 33.4545 56.0159 33.625C56.3852 33.7955 56.6878 34.0341 56.9236 34.3409C57.1594 34.6477 57.3057 35.0057 57.3625 35.4148H56.3568C56.2801 35.1165 56.1096 34.8523 55.8454 34.6222C55.5841 34.3892 55.2318 34.2727 54.7886 34.2727C54.3966 34.2727 54.0528 34.375 53.7574 34.5795C53.4648 34.7812 53.2361 35.0668 53.0713 35.4361C52.9094 35.8026 52.8284 36.233 52.8284 36.7273C52.8284 37.233 52.9079 37.6733 53.067 38.0483C53.229 38.4233 53.4562 38.7145 53.7488 38.9219C54.0443 39.1293 54.3909 39.233 54.7886 39.233C55.05 39.233 55.2872 39.1875 55.5003 39.0966C55.7133 39.0057 55.8937 38.875 56.0415 38.7045C56.1892 38.5341 56.2943 38.3295 56.3568 38.0909H57.3625C57.3057 38.4773 57.165 38.8253 56.9406 39.1349C56.719 39.4418 56.425 39.6861 56.0585 39.8679C55.6949 40.0469 55.2716 40.1364 54.7886 40.1364ZM61.337 40.1364C60.7063 40.1364 60.1623 39.9972 59.7049 39.7188C59.2503 39.4375 58.8995 39.0455 58.6523 38.5426C58.408 38.0369 58.2858 37.4489 58.2858 36.7784C58.2858 36.108 58.408 35.517 58.6523 35.0057C58.8995 34.4915 59.2432 34.0909 59.6836 33.804C60.1267 33.5142 60.6438 33.3693 61.2347 33.3693C61.5756 33.3693 61.9123 33.4261 62.2446 33.5398C62.577 33.6534 62.8796 33.8381 63.1523 34.0938C63.425 34.3466 63.6424 34.6818 63.8043 35.0994C63.9662 35.517 64.0472 36.0312 64.0472 36.642V37.0682H59.0017V36.1989H63.0245C63.0245 35.8295 62.9506 35.5 62.8029 35.2102C62.658 34.9205 62.4506 34.6918 62.1807 34.5241C61.9137 34.3565 61.5983 34.2727 61.2347 34.2727C60.8341 34.2727 60.4875 34.3722 60.1949 34.571C59.9052 34.767 59.6821 35.0227 59.5259 35.3381C59.3696 35.6534 59.2915 35.9915 59.2915 36.3523V36.9318C59.2915 37.4261 59.3767 37.8452 59.5472 38.1889C59.7205 38.5298 59.9605 38.7898 60.2674 38.9688C60.5742 39.1449 60.9307 39.233 61.337 39.233C61.6012 39.233 61.8398 39.196 62.0529 39.1222C62.2688 39.0455 62.4549 38.9318 62.6111 38.7812C62.7674 38.6278 62.8881 38.4375 62.9733 38.2102L63.9449 38.483C63.8427 38.8125 63.6708 39.1023 63.4293 39.3523C63.1878 39.5994 62.8895 39.7926 62.5344 39.9318C62.1793 40.0682 61.7802 40.1364 61.337 40.1364Z" fill="#757575"/>
</svg>
