<svg width="25" height="24" viewBox="0 0 25 24" fill="none" xmlns="http://www.w3.org/2000/svg">
<path d="M16.0999 4H18.0999C18.6303 4 19.139 4.21071 19.5141 4.58579C19.8891 4.96086 20.0999 5.46957 20.0999 6V20C20.0999 20.5304 19.8891 21.0391 19.5141 21.4142C19.139 21.7893 18.6303 22 18.0999 22H6.09985C5.56942 22 5.06071 21.7893 4.68564 21.4142C4.31057 21.0391 4.09985 20.5304 4.09985 20V6C4.09985 5.46957 4.31057 4.96086 4.68564 4.58579C5.06071 4.21071 5.56942 4 6.09985 4H8.09985M9.09985 2H15.0999C15.6521 2 16.0999 2.44772 16.0999 3V5C16.0999 5.55228 15.6521 6 15.0999 6H9.09985C8.54757 6 8.09985 5.55228 8.09985 5V3C8.09985 2.44772 8.54757 2 9.09985 2Z" stroke="#757575" stroke-width="2" stroke-linecap="round" stroke-linejoin="round"/>
</svg>
