<svg width="20" height="20" viewBox="0 0 20 20" fill="none" xmlns="http://www.w3.org/2000/svg">
<path d="M13.334 3.33317H15.0007C15.4427 3.33317 15.8666 3.50877 16.1792 3.82133C16.4917 4.13389 16.6673 4.55781 16.6673 4.99984V16.6665C16.6673 17.1085 16.4917 17.5325 16.1792 17.845C15.8666 18.1576 15.4427 18.3332 15.0007 18.3332H5.00065C4.55862 18.3332 4.1347 18.1576 3.82214 17.845C3.50958 17.5325 3.33398 17.1085 3.33398 16.6665V4.99984C3.33398 4.55781 3.50958 4.13389 3.82214 3.82133C4.1347 3.50877 4.55862 3.33317 5.00065 3.33317H6.66732M7.50065 1.6665H12.5007C12.9609 1.6665 13.334 2.0396 13.334 2.49984V4.1665C13.334 4.62674 12.9609 4.99984 12.5007 4.99984H7.50065C7.04041 4.99984 6.66732 4.62674 6.66732 4.1665V2.49984C6.66732 2.0396 7.04041 1.6665 7.50065 1.6665Z" stroke="#39C687" stroke-width="2" stroke-linecap="round" stroke-linejoin="round"/>
</svg>
