<svg width="22" height="22" viewBox="0 0 22 22" fill="none" xmlns="http://www.w3.org/2000/svg">
<path fill-rule="evenodd" clip-rule="evenodd" d="M0.75 11C0.75 5.08579 5.08579 0.75 11 0.75C16.9142 0.75 21.25 5.08579 21.25 11C21.25 16.9142 16.9142 21.25 11 21.25C5.08579 21.25 0.75 16.9142 0.75 11ZM6.96967 6.96967C7.26256 6.67678 7.73744 6.67678 8.03033 6.96967L11 9.93934L13.9697 6.96967C14.2626 6.67678 14.7374 6.67678 15.0303 6.96967C15.3232 7.26256 15.3232 7.73744 15.0303 8.03033L12.0607 11L15.0303 13.9697C15.3232 14.2626 15.3232 14.7374 15.0303 15.0303C14.7374 15.3232 14.2626 15.3232 13.9697 15.0303L11 12.0607L8.03033 15.0303C7.73744 15.3232 7.26256 15.3232 6.96967 15.0303C6.67678 14.7374 6.67678 14.2626 6.96967 13.9697L9.93934 11L6.96967 8.03033C6.67678 7.73744 6.67678 7.26256 6.96967 6.96967Z" fill="#C80B0B"/>
</svg>
