<svg width="15" height="16" viewBox="0 0 15 16" fill="none" xmlns="http://www.w3.org/2000/svg">
<path d="M1.5 4.00016H2.83333M2.83333 4.00016H13.5M2.83333 4.00016L2.83333 13.3335C2.83333 13.6871 2.97381 14.0263 3.22386 14.2763C3.47391 14.5264 3.81304 14.6668 4.16667 14.6668H10.8333C11.187 14.6668 11.5261 14.5264 11.7761 14.2763C12.0262 14.0263 12.1667 13.6871 12.1667 13.3335V4.00016M4.83333 4.00016V2.66683C4.83333 2.31321 4.97381 1.97407 5.22386 1.72402C5.47391 1.47397 5.81304 1.3335 6.16667 1.3335H8.83333C9.18696 1.3335 9.52609 1.47397 9.77614 1.72402C10.0262 1.97407 10.1667 2.31321 10.1667 2.66683V4.00016M6.16667 7.3335V11.3335M8.83333 7.3335V11.3335" stroke="#E03434" stroke-width="1.6" stroke-linecap="round" stroke-linejoin="round"/>
</svg>
