<svg width="66" height="44" viewBox="0 0 66 44" fill="none" xmlns="http://www.w3.org/2000/svg">
<path d="M29.7002 22V12H35.7002V22M23.7002 9L32.7002 2L41.7002 9V20C41.7002 20.5304 41.4895 21.0391 41.1144 21.4142C40.7393 21.7893 40.2306 22 39.7002 22H25.7002C25.1698 22 24.6611 21.7893 24.286 21.4142C23.9109 21.0391 23.7002 20.5304 23.7002 20V9Z" stroke="#757575" stroke-width="2" stroke-linecap="round" stroke-linejoin="round"/>
<path d="M17.3885 40V31.2727H18.4453V35.1591H23.0987V31.2727H24.1555V40H23.0987V36.0966H18.4453V40H17.3885ZM28.554 40.1364C27.9631 40.1364 27.4447 39.9957 26.9986 39.7145C26.5555 39.4332 26.2089 39.0398 25.9589 38.5341C25.7117 38.0284 25.5881 37.4375 25.5881 36.7614C25.5881 36.0795 25.7117 35.4844 25.9589 34.9759C26.2089 34.4673 26.5555 34.0724 26.9986 33.7912C27.4447 33.5099 27.9631 33.3693 28.554 33.3693C29.1449 33.3693 29.662 33.5099 30.1052 33.7912C30.5512 34.0724 30.8978 34.4673 31.1449 34.9759C31.3949 35.4844 31.5199 36.0795 31.5199 36.7614C31.5199 37.4375 31.3949 38.0284 31.1449 38.5341C30.8978 39.0398 30.5512 39.4332 30.1052 39.7145C29.662 39.9957 29.1449 40.1364 28.554 40.1364ZM28.554 39.233C29.0029 39.233 29.3722 39.1179 29.662 38.8878C29.9518 38.6577 30.1663 38.3551 30.3055 37.9801C30.4447 37.6051 30.5143 37.1989 30.5143 36.7614C30.5143 36.3239 30.4447 35.9162 30.3055 35.5384C30.1663 35.1605 29.9518 34.8551 29.662 34.6222C29.3722 34.3892 29.0029 34.2727 28.554 34.2727C28.1052 34.2727 27.7359 34.3892 27.4461 34.6222C27.1563 34.8551 26.9418 35.1605 26.8026 35.5384C26.6634 35.9162 26.5938 36.3239 26.5938 36.7614C26.5938 37.1989 26.6634 37.6051 26.8026 37.9801C26.9418 38.3551 27.1563 38.6577 27.4461 38.8878C27.7359 39.1179 28.1052 39.233 28.554 39.233ZM32.8151 40V33.4545H33.7867V34.4773H33.8719C34.0083 34.1278 34.2285 33.8565 34.5324 33.6634C34.8364 33.4673 35.2015 33.3693 35.6276 33.3693C36.0594 33.3693 36.4188 33.4673 36.7057 33.6634C36.9955 33.8565 37.2214 34.1278 37.3833 34.4773H37.4515C37.6191 34.1392 37.8705 33.8707 38.2057 33.6719C38.541 33.4702 38.9429 33.3693 39.4117 33.3693C39.9969 33.3693 40.4756 33.5526 40.8478 33.919C41.2199 34.2827 41.406 34.8494 41.406 35.6193V40H40.4003V35.6193C40.4003 35.1364 40.2682 34.7912 40.004 34.5838C39.7398 34.3764 39.4287 34.2727 39.0708 34.2727C38.6106 34.2727 38.254 34.4119 38.0012 34.6903C37.7483 34.9659 37.6219 35.3153 37.6219 35.7386V40H36.5992V35.517C36.5992 35.1449 36.4785 34.8452 36.237 34.6179C35.9955 34.3878 35.6844 34.2727 35.3037 34.2727C35.0424 34.2727 34.7981 34.3423 34.5708 34.4815C34.3464 34.6207 34.1645 34.8139 34.0253 35.0611C33.889 35.3054 33.8208 35.5881 33.8208 35.9091V40H32.8151ZM45.7491 40.1364C45.1184 40.1364 44.5744 39.9972 44.117 39.7188C43.6625 39.4375 43.3116 39.0455 43.0645 38.5426C42.8201 38.0369 42.698 37.4489 42.698 36.7784C42.698 36.108 42.8201 35.517 43.0645 35.0057C43.3116 34.4915 43.6554 34.0909 44.0957 33.804C44.5389 33.5142 45.0559 33.3693 45.6468 33.3693C45.9877 33.3693 46.3244 33.4261 46.6568 33.5398C46.9892 33.6534 47.2917 33.8381 47.5645 34.0938C47.8372 34.3466 48.0545 34.6818 48.2164 35.0994C48.3784 35.517 48.4593 36.0312 48.4593 36.642V37.0682H43.4139V36.1989H47.4366C47.4366 35.8295 47.3627 35.5 47.215 35.2102C47.0701 34.9205 46.8627 34.6918 46.5929 34.5241C46.3258 34.3565 46.0105 34.2727 45.6468 34.2727C45.2463 34.2727 44.8997 34.3722 44.6071 34.571C44.3173 34.767 44.0943 35.0227 43.938 35.3381C43.7818 35.6534 43.7037 35.9915 43.7037 36.3523V36.9318C43.7037 37.4261 43.7889 37.8452 43.9593 38.1889C44.1326 38.5298 44.3727 38.7898 44.6795 38.9688C44.9863 39.1449 45.3429 39.233 45.7491 39.233C46.0133 39.233 46.252 39.196 46.465 39.1222C46.6809 39.0455 46.867 38.9318 47.0233 38.7812C47.1795 38.6278 47.3002 38.4375 47.3855 38.2102L48.3571 38.483C48.2548 38.8125 48.0829 39.1023 47.8414 39.3523C47.6 39.5994 47.3017 39.7926 46.9466 39.9318C46.5914 40.0682 46.1923 40.1364 45.7491 40.1364Z" fill="#757575"/>
</svg>
