<svg width="23" height="18" viewBox="0 0 23 18" fill="none" xmlns="http://www.w3.org/2000/svg">
<path d="M21.8999 9H15.8999L13.8999 12H9.8999L7.8999 9H1.8999M21.8999 9V15C21.8999 15.5304 21.6892 16.0391 21.3141 16.4142C20.939 16.7893 20.4303 17 19.8999 17H3.8999C3.36947 17 2.86076 16.7893 2.48569 16.4142C2.11062 16.0391 1.8999 15.5304 1.8999 15V9M21.8999 9L18.4499 2.11C18.2843 1.77679 18.0291 1.49637 17.7129 1.30028C17.3966 1.10419 17.032 1.0002 16.6599 1H7.1399C6.76782 1.0002 6.40317 1.10419 6.08695 1.30028C5.77073 1.49637 5.51548 1.77679 5.3499 2.11L1.8999 9" stroke="#757575" stroke-width="2" stroke-linecap="round" stroke-linejoin="round"/>
</svg>
