<svg width="66" height="44" viewBox="0 0 66 44" fill="none" xmlns="http://www.w3.org/2000/svg">
<path d="M42.8999 12H36.8999L34.8999 15H30.8999L28.8999 12H22.8999M42.8999 12V18C42.8999 18.5304 42.6892 19.0391 42.3141 19.4142C41.939 19.7893 41.4303 20 40.8999 20H24.8999C24.3695 20 23.8608 19.7893 23.4857 19.4142C23.1106 19.0391 22.8999 18.5304 22.8999 18V12M42.8999 12L39.4499 5.11C39.2843 4.77679 39.0291 4.49637 38.7129 4.30028C38.3966 4.10419 38.032 4.0002 37.6599 4H28.1399C27.7678 4.0002 27.4032 4.10419 27.0869 4.30028C26.7707 4.49637 26.5155 4.77679 26.3499 5.11L22.8999 12" stroke="#757575" stroke-width="2" stroke-linecap="round" stroke-linejoin="round"/>
<path d="M19.9838 31.2727V40H18.927V31.2727H19.9838ZM22.7321 36.0625V40H21.7264V33.4545H22.698V34.4773H22.7832C22.9366 34.1449 23.1696 33.8778 23.4821 33.6761C23.7946 33.4716 24.198 33.3693 24.6923 33.3693C25.1355 33.3693 25.5232 33.4602 25.8556 33.642C26.188 33.821 26.4465 34.0938 26.6312 34.4602C26.8159 34.8239 26.9082 35.2841 26.9082 35.8409V40H25.9025V35.9091C25.9025 35.3949 25.769 34.9943 25.5019 34.7074C25.2349 34.4176 24.8684 34.2727 24.4025 34.2727C24.0815 34.2727 23.7946 34.3423 23.5417 34.4815C23.2917 34.6207 23.0943 34.8239 22.9494 35.0909C22.8045 35.358 22.7321 35.6818 22.7321 36.0625ZM28.6423 40V31.2727H29.6479V34.4943H29.7332C29.807 34.3807 29.9093 34.2358 30.04 34.0597C30.1735 33.8807 30.3639 33.7216 30.611 33.5824C30.861 33.4403 31.1991 33.3693 31.6252 33.3693C32.1764 33.3693 32.6622 33.5071 33.0826 33.7827C33.5031 34.0582 33.8312 34.4489 34.067 34.9545C34.3028 35.4602 34.4207 36.0568 34.4207 36.7443C34.4207 37.4375 34.3028 38.0384 34.067 38.5469C33.8312 39.0526 33.5045 39.4446 33.0869 39.723C32.6693 39.9986 32.1877 40.1364 31.6423 40.1364C31.2218 40.1364 30.8852 40.0668 30.6323 39.9276C30.3795 39.7855 30.1849 39.625 30.0485 39.446C29.9122 39.2642 29.807 39.1136 29.7332 38.9943H29.6139V40H28.6423ZM29.6309 36.7273C29.6309 37.2216 29.7033 37.6577 29.8482 38.0355C29.9931 38.4105 30.2048 38.7045 30.4832 38.9176C30.7616 39.1278 31.1025 39.233 31.5059 39.233C31.9264 39.233 32.2772 39.1222 32.5585 38.9006C32.8426 38.6761 33.0556 38.375 33.1977 37.9972C33.3426 37.6165 33.415 37.1932 33.415 36.7273C33.415 36.267 33.344 35.8523 33.2019 35.483C33.0627 35.1108 32.8511 34.8168 32.567 34.6009C32.2857 34.3821 31.932 34.2727 31.5059 34.2727C31.0968 34.2727 30.7531 34.3764 30.4747 34.5838C30.1962 34.7884 29.986 35.0753 29.844 35.4446C29.7019 35.8111 29.6309 36.2386 29.6309 36.7273ZM38.3781 40.1364C37.7872 40.1364 37.2687 39.9957 36.8227 39.7145C36.3795 39.4332 36.0329 39.0398 35.7829 38.5341C35.5358 38.0284 35.4122 37.4375 35.4122 36.7614C35.4122 36.0795 35.5358 35.4844 35.7829 34.9759C36.0329 34.4673 36.3795 34.0724 36.8227 33.7912C37.2687 33.5099 37.7872 33.3693 38.3781 33.3693C38.969 33.3693 39.4861 33.5099 39.9293 33.7912C40.3753 34.0724 40.7219 34.4673 40.969 34.9759C41.219 35.4844 41.344 36.0795 41.344 36.7614C41.344 37.4375 41.219 38.0284 40.969 38.5341C40.7219 39.0398 40.3753 39.4332 39.9293 39.7145C39.4861 39.9957 38.969 40.1364 38.3781 40.1364ZM38.3781 39.233C38.827 39.233 39.1963 39.1179 39.4861 38.8878C39.7758 38.6577 39.9903 38.3551 40.1295 37.9801C40.2687 37.6051 40.3383 37.1989 40.3383 36.7614C40.3383 36.3239 40.2687 35.9162 40.1295 35.5384C39.9903 35.1605 39.7758 34.8551 39.4861 34.6222C39.1963 34.3892 38.827 34.2727 38.3781 34.2727C37.9293 34.2727 37.5599 34.3892 37.2702 34.6222C36.9804 34.8551 36.7659 35.1605 36.6267 35.5384C36.4875 35.9162 36.4179 36.3239 36.4179 36.7614C36.4179 37.1989 36.4875 37.6051 36.6267 37.9801C36.7659 38.3551 36.9804 38.6577 37.2702 38.8878C37.5599 39.1179 37.9293 39.233 38.3781 39.233ZM43.1197 33.4545L44.6878 36.1307L46.256 33.4545H47.4151L45.3015 36.7273L47.4151 40H46.256L44.6878 37.4602L43.1197 40H41.9606L44.0401 36.7273L41.9606 33.4545H43.1197Z" fill="#757575"/>
</svg>
