<svg width="24" height="24" viewBox="0 0 24 24" fill="none" xmlns="http://www.w3.org/2000/svg">
<path fill-rule="evenodd" clip-rule="evenodd" d="M2 12.25C2 6.33579 6.33579 2 12.25 2C18.1642 2 22.5 6.33579 22.5 12.25C22.5 18.1642 18.1642 22.5 12.25 22.5C6.33579 22.5 2 18.1642 2 12.25ZM12 10.0467C11.4822 10.0467 11.0625 10.4664 11.0625 10.9842V17.0214C11.0625 17.5391 11.4822 17.9589 12 17.9589C12.5178 17.9589 12.9375 17.5391 12.9375 17.0213V10.9842C12.9375 10.4664 12.5178 10.0467 12 10.0467ZM13.2656 7.63312C13.2656 8.3321 12.699 8.89874 12 8.89874C11.301 8.89874 10.7344 8.3321 10.7344 7.63312C10.7344 6.93413 11.301 6.36749 12 6.36749C12.699 6.36749 13.2656 6.93413 13.2656 7.63312Z" fill="#B3B3B3"/>
</svg>
