<svg width="24" height="24" viewBox="0 0 24 24" fill="none" xmlns="http://www.w3.org/2000/svg">
<path fill-rule="evenodd" clip-rule="evenodd" d="M12 1.75C6.08579 1.75 1.75 6.08579 1.75 12C1.75 17.9142 6.08579 22.25 12 22.25C17.9142 22.25 22.25 17.9142 22.25 12C22.25 6.08579 17.9142 1.75 12 1.75ZM18.5303 9.53033C18.8232 9.23744 18.8232 8.76256 18.5303 8.46967C18.2374 8.17678 17.7626 8.17678 17.4697 8.46967L11 14.9393L7.03033 10.9697C6.73744 10.6768 6.26256 10.6768 5.96967 10.9697C5.67678 11.2626 5.67678 11.7374 5.96967 12.0303L10.4697 16.5303C10.7626 16.8232 11.2374 16.8232 11.5303 16.5303L18.5303 9.53033Z" fill="#17C653"/>
</svg>
