<svg width="20" height="20" viewBox="0 0 20 20" fill="none" xmlns="http://www.w3.org/2000/svg">
<g clip-path="url(#clip0_2820_10253)">
<path d="M17.6747 13.2415C17.1445 14.4952 16.3153 15.6 15.2596 16.4593C14.2038 17.3185 12.9537 17.906 11.6184 18.1705C10.2831 18.435 8.90337 18.3683 7.59981 17.9763C6.29624 17.5844 5.10854 16.8791 4.14053 15.922C3.17253 14.965 2.4537 13.7855 2.04688 12.4865C1.64006 11.1875 1.55765 9.80858 1.80685 8.47037C2.05605 7.13215 2.62926 5.87536 3.47639 4.80986C4.32351 3.74436 5.41875 2.9026 6.66635 2.35817M18.333 9.99984C18.333 8.90549 18.1175 7.82185 17.6987 6.81081C17.2799 5.79976 16.6661 4.8811 15.8922 4.10728C15.1184 3.33346 14.1998 2.71963 13.1887 2.30084C12.1777 1.88205 11.094 1.6665 9.99969 1.6665V9.99984H18.333Z" stroke="#F25A5A" stroke-width="2" stroke-linecap="round" stroke-linejoin="round"/>
</g>
<defs>
<clipPath id="clip0_2820_10253">
<rect width="20" height="20" fill="white"/>
</clipPath>
</defs>
</svg>
