<svg width="67" height="44" viewBox="0 0 67 44" fill="none" xmlns="http://www.w3.org/2000/svg">
<path d="M32.5 3.99998H25.5C24.9696 3.99998 24.4609 4.2107 24.0858 4.58577C23.7107 4.96084 23.5 5.46955 23.5 5.99998V20C23.5 20.5304 23.7107 21.0391 24.0858 21.4142C24.4609 21.7893 24.9696 22 25.5 22H39.5C40.0304 22 40.5391 21.7893 40.9142 21.4142C41.2893 21.0391 41.5 20.5304 41.5 20V13M40 2.49998C40.3978 2.10216 40.9374 1.87866 41.5 1.87866C42.0626 1.87866 42.6022 2.10216 43 2.49998C43.3978 2.89781 43.6213 3.43737 43.6213 3.99998C43.6213 4.56259 43.3978 5.10216 43 5.49998L33.5 15L29.5 16L30.5 12L40 2.49998Z" stroke="#757575" stroke-width="2" stroke-linecap="round" stroke-linejoin="round"/>
<path d="M12.0327 40V31.2727H14.9815C15.6634 31.2727 16.223 31.3892 16.6605 31.6222C17.098 31.8523 17.4219 32.169 17.6321 32.5724C17.8423 32.9759 17.9474 33.4347 17.9474 33.9489C17.9474 34.4631 17.8423 34.919 17.6321 35.3168C17.4219 35.7145 17.0994 36.027 16.6648 36.2543C16.2301 36.4787 15.6747 36.5909 14.9986 36.5909H12.6122V35.6364H14.9645C15.4304 35.6364 15.8054 35.5682 16.0895 35.4318C16.3764 35.2955 16.5838 35.1023 16.7117 34.8523C16.8423 34.5994 16.9077 34.2983 16.9077 33.9489C16.9077 33.5994 16.8423 33.294 16.7117 33.0327C16.581 32.7713 16.3722 32.5696 16.0852 32.4276C15.7983 32.2827 15.419 32.2102 14.9474 32.2102H13.0895V40H12.0327ZM16.1406 36.0795L18.2884 40H17.0611L14.9474 36.0795H16.1406ZM22.0061 40.1364C21.3754 40.1364 20.8314 39.9972 20.374 39.7188C19.9195 39.4375 19.5686 39.0455 19.3214 38.5426C19.0771 38.0369 18.955 37.4489 18.955 36.7784C18.955 36.108 19.0771 35.517 19.3214 35.0057C19.5686 34.4915 19.9124 34.0909 20.3527 33.804C20.7959 33.5142 21.3129 33.3693 21.9038 33.3693C22.2447 33.3693 22.5814 33.4261 22.9138 33.5398C23.2462 33.6534 23.5487 33.8381 23.8214 34.0938C24.0942 34.3466 24.3115 34.6818 24.4734 35.0994C24.6354 35.517 24.7163 36.0312 24.7163 36.642V37.0682H19.6709V36.1989H23.6936C23.6936 35.8295 23.6197 35.5 23.472 35.2102C23.3271 34.9205 23.1197 34.6918 22.8499 34.5241C22.5828 34.3565 22.2675 34.2727 21.9038 34.2727C21.5033 34.2727 21.1567 34.3722 20.8641 34.571C20.5743 34.767 20.3513 35.0227 20.195 35.3381C20.0388 35.6534 19.9606 35.9915 19.9606 36.3523V36.9318C19.9606 37.4261 20.0459 37.8452 20.2163 38.1889C20.3896 38.5298 20.6297 38.7898 20.9365 38.9688C21.2433 39.1449 21.5999 39.233 22.0061 39.233C22.2703 39.233 22.5089 39.196 22.722 39.1222C22.9379 39.0455 23.124 38.9318 23.2802 38.7812C23.4365 38.6278 23.5572 38.4375 23.6425 38.2102L24.6141 38.483C24.5118 38.8125 24.3399 39.1023 24.0984 39.3523C23.857 39.5994 23.5587 39.7926 23.2035 39.9318C22.8484 40.0682 22.4493 40.1364 22.0061 40.1364ZM30.4721 42.4545V38.9943H30.3868C30.313 39.1136 30.2079 39.2642 30.0715 39.446C29.9351 39.625 29.7405 39.7855 29.4877 39.9276C29.2349 40.0668 28.8982 40.1364 28.4777 40.1364C27.9323 40.1364 27.4508 39.9986 27.0331 39.723C26.6155 39.4446 26.2888 39.0526 26.053 38.5469C25.8172 38.0384 25.6993 37.4375 25.6993 36.7443C25.6993 36.0568 25.8172 35.4602 26.053 34.9545C26.2888 34.4489 26.617 34.0582 27.0374 33.7827C27.4579 33.5071 27.9437 33.3693 28.4948 33.3693C28.9209 33.3693 29.2576 33.4403 29.5047 33.5824C29.7547 33.7216 29.9451 33.8807 30.0758 34.0597C30.2093 34.2358 30.313 34.3807 30.3868 34.4943H30.5062V33.4545H31.4777V42.4545H30.4721ZM28.6141 39.233C29.0175 39.233 29.3584 39.1278 29.6368 38.9176C29.9152 38.7045 30.1269 38.4105 30.2718 38.0355C30.4167 37.6577 30.4891 37.2216 30.4891 36.7273C30.4891 36.2386 30.4181 35.8111 30.276 35.4446C30.134 35.0753 29.9238 34.7884 29.6454 34.5838C29.367 34.3764 29.0232 34.2727 28.6141 34.2727C28.188 34.2727 27.8329 34.3821 27.5488 34.6009C27.2675 34.8168 27.0559 35.1108 26.9138 35.483C26.7746 35.8523 26.705 36.267 26.705 36.7273C26.705 37.1932 26.776 37.6165 26.9181 37.9972C27.063 38.375 27.276 38.6761 27.5573 38.9006C27.8414 39.1222 28.1937 39.233 28.6141 39.233ZM37.2037 37.3239V33.4545H38.2093V40H37.2037V38.892H37.1355C36.9821 39.2244 36.7434 39.5071 36.4196 39.7401C36.0957 39.9702 35.6866 40.0852 35.1923 40.0852C34.7832 40.0852 34.4196 39.9957 34.1014 39.8168C33.7832 39.6349 33.5332 39.3622 33.3514 38.9986C33.1696 38.6321 33.0787 38.1705 33.0787 37.6136V33.4545H34.0843V37.5455C34.0843 38.0227 34.2179 38.4034 34.4849 38.6875C34.7548 38.9716 35.0985 39.1136 35.5162 39.1136C35.7662 39.1136 36.0204 39.0497 36.2789 38.9219C36.5403 38.794 36.7591 38.598 36.9352 38.3338C37.1142 38.0696 37.2037 37.733 37.2037 37.3239ZM42.5556 40.1364C41.925 40.1364 41.3809 39.9972 40.9235 39.7188C40.469 39.4375 40.1181 39.0455 39.871 38.5426C39.6267 38.0369 39.5045 37.4489 39.5045 36.7784C39.5045 36.108 39.6267 35.517 39.871 35.0057C40.1181 34.4915 40.4619 34.0909 40.9022 33.804C41.3454 33.5142 41.8625 33.3693 42.4534 33.3693C42.7943 33.3693 43.1309 33.4261 43.4633 33.5398C43.7957 33.6534 44.0982 33.8381 44.371 34.0938C44.6437 34.3466 44.861 34.6818 45.023 35.0994C45.1849 35.517 45.2659 36.0312 45.2659 36.642V37.0682H40.2204V36.1989H44.2431C44.2431 35.8295 44.1693 35.5 44.0215 35.2102C43.8767 34.9205 43.6693 34.6918 43.3994 34.5241C43.1323 34.3565 42.817 34.2727 42.4534 34.2727C42.0528 34.2727 41.7062 34.3722 41.4136 34.571C41.1238 34.767 40.9008 35.0227 40.7446 35.3381C40.5883 35.6534 40.5102 35.9915 40.5102 36.3523V36.9318C40.5102 37.4261 40.5954 37.8452 40.7659 38.1889C40.9392 38.5298 41.1792 38.7898 41.486 38.9688C41.7928 39.1449 42.1494 39.233 42.5556 39.233C42.8198 39.233 43.0585 39.196 43.2715 39.1222C43.4875 39.0455 43.6735 38.9318 43.8298 38.7812C43.986 38.6278 44.1068 38.4375 44.192 38.2102L45.1636 38.483C45.0613 38.8125 44.8894 39.1023 44.648 39.3523C44.4065 39.5994 44.1082 39.7926 43.7531 39.9318C43.398 40.0682 42.9988 40.1364 42.5556 40.1364ZM51.192 34.9205L50.2886 35.1761C50.2318 35.0256 50.148 34.8793 50.0372 34.7372C49.9293 34.5923 49.7815 34.473 49.594 34.3793C49.4065 34.2855 49.1665 34.2386 48.8739 34.2386C48.4733 34.2386 48.1395 34.331 47.8724 34.5156C47.6082 34.6974 47.4761 34.929 47.4761 35.2102C47.4761 35.4602 47.567 35.6577 47.7489 35.8026C47.9307 35.9474 48.2148 36.0682 48.6011 36.1648L49.5727 36.4034C50.158 36.5455 50.594 36.7628 50.881 37.0554C51.1679 37.3452 51.3114 37.7187 51.3114 38.1761C51.3114 38.5511 51.2034 38.8864 50.9875 39.1818C50.7744 39.4773 50.4761 39.7102 50.0926 39.8807C49.7091 40.0511 49.2631 40.1364 48.7545 40.1364C48.0869 40.1364 47.5344 39.9915 47.0969 39.7017C46.6594 39.4119 46.3824 38.9886 46.2659 38.4318L47.2205 38.1932C47.3114 38.5455 47.4832 38.8097 47.7361 38.9858C47.9918 39.1619 48.3256 39.25 48.7375 39.25C49.2063 39.25 49.5784 39.1506 49.854 38.9517C50.1324 38.75 50.2716 38.5085 50.2716 38.2273C50.2716 38 50.192 37.8097 50.033 37.6562C49.8739 37.5 49.6295 37.3835 49.3 37.3068L48.2091 37.0511C47.6097 36.9091 47.1693 36.6889 46.8881 36.3906C46.6097 36.0895 46.4705 35.7131 46.4705 35.2614C46.4705 34.892 46.5742 34.5653 46.7815 34.2812C46.9918 33.9972 47.2773 33.7741 47.6381 33.6122C48.0017 33.4503 48.4136 33.3693 48.8739 33.3693C49.5216 33.3693 50.0301 33.5114 50.3994 33.7955C50.7716 34.0795 51.0358 34.4545 51.192 34.9205ZM55.4318 33.4545V34.3068H52.0398V33.4545H55.4318ZM53.0284 31.8864H54.0341V38.125C54.0341 38.4091 54.0753 38.6222 54.1577 38.7642C54.2429 38.9034 54.3508 38.9972 54.4815 39.0455C54.615 39.0909 54.7557 39.1136 54.9034 39.1136C55.0142 39.1136 55.1051 39.108 55.1761 39.0966C55.2472 39.0824 55.304 39.071 55.3466 39.0625L55.5511 39.9659C55.4829 39.9915 55.3878 40.017 55.2656 40.0426C55.1435 40.071 54.9886 40.0852 54.8011 40.0852C54.517 40.0852 54.2386 40.0241 53.9659 39.902C53.696 39.7798 53.4716 39.5938 53.2926 39.3438C53.1165 39.0938 53.0284 38.7784 53.0284 38.3977V31.8864Z" fill="#757575"/>
</svg>
