<svg width="25" height="24" viewBox="0 0 25 24" fill="none" xmlns="http://www.w3.org/2000/svg">
<path d="M11.5 3.99998H4.5C3.96957 3.99998 3.46086 4.2107 3.08579 4.58577C2.71071 4.96084 2.5 5.46955 2.5 5.99998V20C2.5 20.5304 2.71071 21.0391 3.08579 21.4142C3.46086 21.7893 3.96957 22 4.5 22H18.5C19.0304 22 19.5391 21.7893 19.9142 21.4142C20.2893 21.0391 20.5 20.5304 20.5 20V13M19 2.49998C19.3978 2.10216 19.9374 1.87866 20.5 1.87866C21.0626 1.87866 21.6022 2.10216 22 2.49998C22.3978 2.89781 22.6213 3.43737 22.6213 3.99998C22.6213 4.56259 22.3978 5.10216 22 5.49998L12.5 15L8.5 16L9.5 12L19 2.49998Z" stroke="#757575" stroke-width="2" stroke-linecap="round" stroke-linejoin="round"/>
</svg>
