<svg width="20" height="20" viewBox="0 0 20 20" fill="none" xmlns="http://www.w3.org/2000/svg">
<path d="M2.50195 4.99984L5.00195 1.6665H15.002L17.502 4.99984M2.50195 4.99984V16.6665C2.50195 17.1085 2.67755 17.5325 2.99011 17.845C3.30267 18.1576 3.72659 18.3332 4.16862 18.3332H15.8353C16.2773 18.3332 16.7012 18.1576 17.0138 17.845C17.3264 17.5325 17.502 17.1085 17.502 16.6665V4.99984M2.50195 4.99984H17.502M13.3353 8.33317C13.3353 9.21722 12.9841 10.0651 12.359 10.6902C11.7339 11.3153 10.886 11.6665 10.002 11.6665C9.1179 11.6665 8.27005 11.3153 7.64493 10.6902C7.01981 10.0651 6.66862 9.21722 6.66862 8.33317" stroke="#687DF1" stroke-width="2" stroke-linecap="round" stroke-linejoin="round"/>
</svg>
