<svg width="24" height="24" viewBox="0 0 24 24" fill="none" xmlns="http://www.w3.org/2000/svg">
<path fill-rule="evenodd" clip-rule="evenodd" d="M3.29289 15.7071L13.5 5.50001C14.8807 4.1193 17.1193 4.1193 18.5 5.50001C19.8807 6.88072 19.8807 9.1193 18.5 10.5L8.29289 20.7071C8.10536 20.8947 7.851 21 7.58579 21H4C3.44772 21 3 20.5523 3 20V16.4142C3 16.149 3.10536 15.8947 3.29289 15.7071ZM4.5 19.5V16.6213L14.5607 6.56067C15.3556 5.76575 16.6444 5.76575 17.4393 6.56067C18.2343 7.3556 18.2343 8.64443 17.4393 9.43935L7.37868 19.5H4.5Z" fill="white"/>
<path d="M12 19.25C11.5858 19.25 11.25 19.5858 11.25 20C11.25 20.4142 11.5858 20.75 12 20.75H19C19.4142 20.75 19.75 20.4142 19.75 20C19.75 19.5858 19.4142 19.25 19 19.25H12Z" fill="white"/>
</svg>
