<svg width="20" height="19" viewBox="0 0 20 19" fill="none" xmlns="http://www.w3.org/2000/svg">
<path d="M10.9286 0.69666C10.3606 0.341022 9.63934 0.341022 9.07131 0.69666L1.01532 5.74041C-0.104723 6.44166 -0.0732188 8.08371 1.07289 8.74148L9.12888 13.3649C9.66834 13.6745 10.3316 13.6745 10.8711 13.3649L18.25 9.13006V12.9999C18.25 13.4141 18.5858 13.7499 19 13.7499C19.4142 13.7499 19.75 13.4141 19.75 12.9999V7.66609C19.9297 6.96798 19.6775 6.17419 18.9846 5.74041L10.9286 0.69666Z" fill="#D9D9D9"/>
<path d="M3.87326 11.484C3.64116 11.3508 3.35568 11.3514 3.1241 11.4855C2.89252 11.6196 2.74994 11.8669 2.74994 12.1345V16.3526C2.74994 17.6765 4.13488 18.4877 5.28654 17.999C6.64737 17.4216 8.56171 16.7501 9.99994 16.7501C11.4382 16.7501 13.3525 17.4216 14.7133 17.999C15.865 18.4877 17.2499 17.6765 17.2499 16.3526V12.1346C17.2499 11.867 17.1074 11.6196 16.8758 11.4855C16.6442 11.3514 16.3587 11.3509 16.1266 11.4841L10.4977 14.7146C10.1895 14.8915 9.81047 14.8915 9.50221 14.7146L3.87326 11.484Z" fill="#D9D9D9"/>
</svg>
