<svg width="20" height="20" viewBox="0 0 20 20" fill="none" xmlns="http://www.w3.org/2000/svg">
<path d="M7.57484 7.50008C7.77076 6.94314 8.15746 6.4735 8.66647 6.17436C9.17547 5.87521 9.77392 5.76586 10.3558 5.86567C10.9377 5.96549 11.4655 6.26802 11.8457 6.71969C12.226 7.17136 12.434 7.74302 12.4332 8.33341C12.4332 10.0001 9.93317 10.8334 9.93317 10.8334M9.99984 14.1667H10.0082M18.3332 10.0001C18.3332 14.6025 14.6022 18.3334 9.99984 18.3334C5.39746 18.3334 1.6665 14.6025 1.6665 10.0001C1.6665 5.39771 5.39746 1.66675 9.99984 1.66675C14.6022 1.66675 18.3332 5.39771 18.3332 10.0001Z" stroke="#1E1E1E" stroke-width="1.5" stroke-linecap="round" stroke-linejoin="round"/>
</svg>
