<svg width="20" height="20" viewBox="0 0 20 20" fill="none" xmlns="http://www.w3.org/2000/svg">
<g clip-path="url(#clip0_370_41898)">
<path d="M18.3332 10.0001C18.3332 14.6025 14.6022 18.3334 9.99984 18.3334M18.3332 10.0001C18.3332 5.39771 14.6022 1.66675 9.99984 1.66675M18.3332 10.0001H1.6665M9.99984 18.3334C5.39746 18.3334 1.6665 14.6025 1.6665 10.0001M9.99984 18.3334C12.0842 16.0515 13.2688 13.0901 13.3332 10.0001C13.2688 6.91011 12.0842 3.94871 9.99984 1.66675M9.99984 18.3334C7.91544 16.0515 6.73088 13.0901 6.6665 10.0001C6.73088 6.91011 7.91544 3.94871 9.99984 1.66675M1.6665 10.0001C1.6665 5.39771 5.39746 1.66675 9.99984 1.66675" stroke="#1E1E1E" stroke-width="1.5" stroke-linecap="round" stroke-linejoin="round"/>
</g>
<defs>
<clipPath id="clip0_370_41898">
<rect width="20" height="20" fill="white"/>
</clipPath>
</defs>
</svg>
