<svg width="20" height="20" viewBox="0 0 20 20" fill="none" xmlns="http://www.w3.org/2000/svg">
<path d="M5.50002 5.45831C5.29291 5.18217 4.90116 5.12621 4.62502 5.33331C4.34888 5.54042 4.29291 5.93217 4.50002 6.20831L6.83335 9.31942C8.41669 11.4305 11.5834 11.4305 13.1667 9.31942L15.5 6.20831C15.7071 5.93217 15.6512 5.54042 15.375 5.33331C15.0989 5.12621 14.7071 5.18217 14.5 5.45831L12.1667 8.56942C11.0834 10.0139 8.91669 10.0139 7.83335 8.56942L5.50002 5.45831Z" fill="#363538"/>
<path fill-rule="evenodd" clip-rule="evenodd" d="M15 3.33331H5.00002C3.15907 3.33331 1.66669 4.8257 1.66669 6.66665V13.3333C1.66669 15.1743 3.15907 16.6666 5.00002 16.6666H15C16.841 16.6666 18.3334 15.1743 18.3334 13.3333V6.66665C18.3334 4.8257 16.841 3.33331 15 3.33331ZM5.00002 4.58331H15C16.1506 4.58331 17.0834 5.51605 17.0834 6.66665V13.3333C17.0834 14.4839 16.1506 15.4166 15 15.4166H5.00002C3.84943 15.4166 2.91669 14.4839 2.91669 13.3333V6.66665C2.91669 5.51605 3.84943 4.58331 5.00002 4.58331Z" fill="#363538"/>
</svg>
