<svg width="17" height="14" viewBox="0 0 17 14" fill="none" xmlns="http://www.w3.org/2000/svg">
<path d="M3.33333 8.54167C2.98816 8.54167 2.70833 8.82149 2.70833 9.16667C2.70833 9.51184 2.98816 9.79167 3.33333 9.79167H4.16667C4.51184 9.79167 4.79167 9.51184 4.79167 9.16667C4.79167 8.82149 4.51184 8.54167 4.16667 8.54167H3.33333Z" fill="#363538"/>
<path d="M6.04167 9.16667C6.04167 8.82149 6.32149 8.54167 6.66667 8.54167H7.5C7.84518 8.54167 8.125 8.82149 8.125 9.16667C8.125 9.51184 7.84518 9.79167 7.5 9.79167H6.66667C6.32149 9.79167 6.04167 9.51184 6.04167 9.16667Z" fill="#363538"/>
<path d="M10 8.54167C9.65482 8.54167 9.375 8.82149 9.375 9.16667C9.375 9.51184 9.65482 9.79167 10 9.79167H13.3333C13.6785 9.79167 13.9583 9.51184 13.9583 9.16667C13.9583 8.82149 13.6785 8.54167 13.3333 8.54167H10Z" fill="#363538"/>
<path fill-rule="evenodd" clip-rule="evenodd" d="M13.3333 0H3.33333C1.49238 0 0 1.49238 0 3.33333V10C0 11.841 1.49238 13.3333 3.33333 13.3333H13.3333C15.1743 13.3333 16.6667 11.841 16.6667 10V3.33333C16.6667 1.49238 15.1743 0 13.3333 0ZM3.33333 1.25H13.3333C14.4839 1.25 15.4167 2.18274 15.4167 3.33333V10C15.4167 11.1506 14.4839 12.0833 13.3333 12.0833H3.33333C2.18274 12.0833 1.25 11.1506 1.25 10V3.33333C1.25 2.18274 2.18274 1.25 3.33333 1.25Z" fill="#363538"/>
</svg>
