<svg width="20" height="20" viewBox="0 0 20 20" fill="none" xmlns="http://www.w3.org/2000/svg">
<path fill-rule="evenodd" clip-rule="evenodd" d="M2.54792 5.16733L3.26412 3.73494C3.77287 2.71744 5.12894 2.49738 5.93334 3.30178L7.83479 5.20323C8.34205 5.7105 8.46781 6.48545 8.14699 7.1271L7.92804 7.56498C7.57579 8.26949 7.56993 9.10313 7.98039 9.77539C8.30172 10.3017 8.7131 10.9061 9.12281 11.3158C9.47591 11.6689 9.97364 12.0233 10.4413 12.3201C11.2252 12.8177 12.2251 12.7239 12.9728 12.1737C13.6397 11.683 14.5671 11.7636 15.1392 12.3619L16.7721 14.0693C17.5476 14.8802 17.3165 16.2102 16.313 16.712L14.8327 17.4521C13.6823 18.0273 12.3788 18.2717 11.1629 17.8525C9.70225 17.349 7.60901 16.3424 5.63333 14.3667C3.65765 12.391 2.651 10.2978 2.14752 8.83717C1.72836 7.62119 1.97272 6.31774 2.54792 5.16733ZM3.66596 5.72635L4.38215 4.29396C4.50934 4.03958 4.84836 3.98457 5.04946 4.18567L6.9509 6.08711C7.07772 6.21393 7.10916 6.40767 7.02895 6.56808L6.81001 7.00597C6.28864 8.0487 6.25244 9.34402 6.91352 10.4268C7.24577 10.971 7.71987 11.6806 8.23892 12.1997C8.69032 12.6511 9.28047 13.0638 9.77146 13.3755C11.0463 14.1847 12.6065 13.9951 13.7137 13.1805C13.8744 13.0622 14.0979 13.0817 14.2359 13.2259L15.8687 14.9333C16.0626 15.136 16.0048 15.4685 15.7539 15.5939L14.2737 16.3341C13.3142 16.8138 12.3689 16.9461 11.5702 16.6707C10.2444 16.2137 8.32892 15.2945 6.51721 13.4828C4.70551 11.6711 3.7863 9.75565 3.32927 8.42981C3.05395 7.63108 3.1862 6.68586 3.66596 5.72635Z" fill="#363538"/>
</svg>
