<svg width="17" height="14" viewBox="0 0 17 14" fill="none" xmlns="http://www.w3.org/2000/svg">
<path d="M0.076527 11V0.818182H3.89471C4.67691 0.818182 5.33316 0.954072 5.86346 1.22585C6.39708 1.49763 6.79978 1.87879 7.07156 2.36932C7.34665 2.85653 7.4842 3.42495 7.4842 4.07457C7.4842 4.72751 7.34499 5.29427 7.06658 5.77486C6.79149 6.25213 6.38548 6.62169 5.84854 6.88352C5.31161 7.14205 4.65205 7.27131 3.86985 7.27131H1.15039V5.74006H3.62127C4.07866 5.74006 4.45318 5.67708 4.74485 5.55114C5.03652 5.42187 5.25195 5.23461 5.39116 4.98935C5.53368 4.74077 5.60494 4.43584 5.60494 4.07457C5.60494 3.7133 5.53368 3.40507 5.39116 3.14986C5.24864 2.89134 5.03155 2.69579 4.73988 2.56321C4.44821 2.42732 4.07203 2.35938 3.61133 2.35938H1.92099V11H0.076527ZM5.33647 6.38636L7.85707 11H5.79883L3.32298 6.38636H5.33647ZM9.10245 13.8636V3.36364H10.8723V4.62642H10.9767C11.0695 4.44081 11.2005 4.24361 11.3695 4.0348C11.5385 3.82268 11.7672 3.64205 12.0556 3.4929C12.3439 3.34044 12.7118 3.2642 13.1593 3.2642C13.7492 3.2642 14.2812 3.41501 14.7551 3.71662C15.2324 4.01491 15.6103 4.45739 15.8887 5.04403C16.1704 5.62737 16.3113 6.34328 16.3113 7.19176C16.3113 8.0303 16.1737 8.7429 15.8986 9.32955C15.6235 9.91619 15.249 10.3636 14.775 10.6719C14.3011 10.9801 13.7641 11.1342 13.1642 11.1342C12.7267 11.1342 12.3638 11.0613 12.0755 10.9155C11.7871 10.7696 11.5551 10.594 11.3794 10.3885C11.2071 10.1797 11.0729 9.98248 10.9767 9.79688H10.9022V13.8636H9.10245ZM10.8674 7.18182C10.8674 7.67566 10.937 8.10819 11.0762 8.4794C11.2187 8.85062 11.4225 9.14062 11.6877 9.34943C11.9561 9.55492 12.281 9.65767 12.6621 9.65767C13.0598 9.65767 13.3929 9.55161 13.6614 9.33949C13.9299 9.12405 14.132 8.83073 14.2679 8.45952C14.4071 8.08499 14.4767 7.65909 14.4767 7.18182C14.4767 6.70786 14.4088 6.28693 14.2729 5.91903C14.137 5.55114 13.9348 5.26278 13.6664 5.05398C13.3979 4.84517 13.0632 4.74077 12.6621 4.74077C12.2776 4.74077 11.9512 4.84186 11.6827 5.04403C11.4142 5.24621 11.2104 5.52959 11.0712 5.89418C10.9353 6.25876 10.8674 6.68797 10.8674 7.18182Z" fill="black"/>
</svg>
