<svg width="18" height="14" viewBox="0 0 18 14" fill="none" xmlns="http://www.w3.org/2000/svg">
<path d="M4.49984 2.4585C4.29273 2.18235 3.90098 2.12639 3.62484 2.3335C3.3487 2.5406 3.29273 2.93235 3.49984 3.2085L5.83317 6.31961C7.4165 8.43072 10.5832 8.43072 12.1665 6.31961L14.4998 3.2085C14.7069 2.93235 14.651 2.5406 14.3748 2.3335C14.0987 2.12639 13.7069 2.18235 13.4998 2.4585L11.1665 5.56961C10.0832 7.01405 7.9165 7.01405 6.83317 5.56961L4.49984 2.4585Z" fill="#363538"/>
<path fill-rule="evenodd" clip-rule="evenodd" d="M13.9998 0.333496H3.99984C2.15889 0.333496 0.666504 1.82588 0.666504 3.66683V10.3335C0.666504 12.1744 2.15889 13.6668 3.99984 13.6668H13.9998C15.8408 13.6668 17.3332 12.1744 17.3332 10.3335V3.66683C17.3332 1.82588 15.8408 0.333496 13.9998 0.333496ZM3.99984 1.5835H13.9998C15.1504 1.5835 16.0832 2.51624 16.0832 3.66683V10.3335C16.0832 11.4841 15.1504 12.4168 13.9998 12.4168H3.99984C2.84924 12.4168 1.9165 11.4841 1.9165 10.3335V3.66683C1.9165 2.51624 2.84924 1.5835 3.99984 1.5835Z" fill="#363538"/>
</svg>
